<svg width="100" height="98" viewBox="0 0 100 98" fill="none" xmlns="http://www.w3.org/2000/svg">
<path d="M50 55.125C46.9097 55.125 43.8887 54.2269 41.3192 52.5444C38.7497 50.8618 36.747 48.4703 35.5644 45.6723C34.3818 42.8744 34.0723 39.7955 34.6752 36.8252C35.2781 33.8549 36.7663 31.1264 38.9515 28.9849C41.1367 26.8434 43.9208 25.3851 46.9517 24.7942C49.9827 24.2034 53.1243 24.5066 55.9794 25.6656C58.8345 26.8246 61.2748 28.7872 62.9917 31.3053C64.7086 33.8235 65.625 36.784 65.625 39.8125C65.6203 43.8722 63.9726 47.7643 61.0433 50.635C58.1141 53.5056 54.1426 55.1204 50 55.125ZM50 30.625C48.1458 30.625 46.3332 31.1638 44.7915 32.1734C43.2498 33.1829 42.0482 34.6178 41.3386 36.2966C40.6291 37.9754 40.4434 39.8227 40.8051 41.6049C41.1669 43.3871 42.0598 45.0242 43.3709 46.3091C44.682 47.594 46.3525 48.469 48.171 48.8235C49.9896 49.178 51.8746 48.996 53.5877 48.3007C55.3007 47.6053 56.7649 46.4277 57.795 44.9168C58.8252 43.4059 59.375 41.6296 59.375 39.8125C59.3723 37.3767 58.3837 35.0413 56.6261 33.3189C54.8686 31.5965 52.4856 30.6277 50 30.625Z" fill="black"/>
<path d="M50 91.875L23.6391 61.4071C23.4894 61.2322 22.551 60.0244 22.551 60.0244C18.0475 54.2114 15.6145 47.111 15.625 39.8125C15.625 30.878 19.2467 22.3095 25.6932 15.9918C32.1398 9.67421 40.8832 6.125 50 6.125C59.1169 6.125 67.8603 9.67421 74.3068 15.9918C80.7534 22.3095 84.375 30.878 84.375 39.8125C84.3862 47.108 81.9548 54.2057 77.4538 60.0167L77.4491 60.0244C77.4491 60.0244 76.5116 61.2322 76.3719 61.3945L50 91.875ZM27.5391 56.3347C27.5422 56.3368 28.2685 57.2785 28.4347 57.4813L50 82.4054L71.5938 57.4461C71.731 57.277 72.4635 56.3286 72.465 56.3261C76.144 51.5764 78.1322 45.7756 78.125 39.8125C78.125 32.5025 75.1619 25.4918 69.8874 20.3229C64.613 15.1539 57.4593 12.25 50 12.25C42.5408 12.25 35.3871 15.1539 30.1127 20.3229C24.8382 25.4918 21.875 32.5025 21.875 39.8125C21.8681 45.7788 23.8578 51.5827 27.5391 56.3347Z" fill="black"/>
</svg>
