<svg width="24" height="25" viewBox="0 0 24 25" fill="none" xmlns="http://www.w3.org/2000/svg">
<path d="M11.9981 14.9999L11.9973 14.9999C11.9315 15.0003 11.8663 14.9877 11.8053 14.9628C11.7447 14.9381 11.6895 14.9016 11.6429 14.8555C11.6427 14.8553 11.6425 14.8551 11.6423 14.8549L7.64374 10.8564C7.5492 10.7619 7.49609 10.6336 7.49609 10.4999C7.49609 10.3662 7.5492 10.238 7.64374 10.1435C7.73827 10.049 7.86649 9.99585 8.00019 9.99585C8.13378 9.99585 8.2619 10.0489 8.35641 10.1433C8.35649 10.1433 8.35656 10.1434 8.35663 10.1435L11.6461 13.443L11.9996 13.7976L12.3537 13.4435L15.6277 10.1695C15.7215 10.0943 15.8394 10.0552 15.9599 10.0599C16.0858 10.0647 16.2051 10.1169 16.2942 10.2059C16.3832 10.295 16.4354 10.4143 16.4403 10.5402C16.4449 10.6607 16.4059 10.7786 16.3306 10.8724L12.3481 14.8549C12.3479 14.8551 12.3477 14.8553 12.3475 14.8555C12.2544 14.9475 12.129 14.9994 11.9981 14.9999Z" fill="#A098AE" stroke="#A098AE"/>
</svg>
