<svg width="25" height="25" viewBox="0 0 25 25" fill="none" xmlns="http://www.w3.org/2000/svg">
<path d="M12.4978 14.9999L12.497 14.9999C12.4312 15.0003 12.366 14.9877 12.3051 14.9628C12.2444 14.9381 12.1892 14.9016 12.1426 14.8555C12.1424 14.8553 12.1422 14.8551 12.1421 14.8549L8.14349 10.8564C8.04896 10.7619 7.99585 10.6336 7.99585 10.4999C7.99585 10.3662 8.04896 10.238 8.14349 10.1435C8.23803 10.049 8.36625 9.99585 8.49994 9.99585C8.63353 9.99585 8.76166 10.0489 8.85617 10.1433C8.85624 10.1433 8.85632 10.1434 8.85639 10.1435L12.1459 13.443L12.4994 13.7976L12.8535 13.4435L16.1275 10.1695C16.2213 10.0943 16.3392 10.0552 16.4597 10.0599C16.5855 10.0647 16.7049 10.1169 16.794 10.2059C16.883 10.295 16.9352 10.4143 16.94 10.5402C16.9447 10.6607 16.9056 10.7786 16.8304 10.8724L12.8478 14.8549C12.8476 14.8551 12.8474 14.8553 12.8472 14.8555C12.7542 14.9475 12.6287 14.9994 12.4978 14.9999Z" fill="#A098AE" stroke="#A098AE"/>
</svg>
