<svg width="16" height="676" viewBox="0 0 16 676" fill="none" xmlns="http://www.w3.org/2000/svg">
<circle cx="8" cy="8" r="8" fill="#FFF3F3"/>
<path d="M11.4769 667.239H10.4774C10.464 667.233 10.4501 667.229 10.436 667.228H9.37174V666.166C9.3718 666.086 9.3458 666.009 9.29945 665.952C9.25304 665.895 9.18995 665.863 9.12369 665.861H6.60672C6.53948 665.861 6.47501 665.893 6.42752 665.95C6.37997 666.007 6.35324 666.085 6.35324 666.166V667.228H5.29439C5.2803 667.229 5.2664 667.233 5.25303 667.239H4.25347C4.16288 667.239 4.07921 667.297 4.03395 667.391C3.98868 667.485 3.98868 667.602 4.03395 667.696C4.07921 667.79 4.16288 667.849 4.25347 667.849H5.06783L5.72585 675.213C5.7329 675.288 5.76263 675.357 5.8094 675.408C5.85611 675.458 5.91661 675.486 5.97932 675.486H9.75462C9.81668 675.485 9.87627 675.456 9.92233 675.406C9.96831 675.356 9.99751 675.288 10.0045 675.213L10.6625 667.859H11.4769C11.5675 667.859 11.6511 667.801 11.6964 667.707C11.7417 667.612 11.7417 667.496 11.6964 667.402C11.6511 667.308 11.5675 667.249 11.4769 667.249L11.4769 667.239ZM6.86566 666.471H8.86472V667.228H6.86566V666.471ZM9.52455 674.872H6.20582L5.57663 667.859H10.1537L9.52455 674.872Z" fill="#E41D1D"/>
<path d="M7.86529 674.158C7.93252 674.158 7.99699 674.126 8.04454 674.069C8.09209 674.011 8.11876 673.934 8.11876 673.853V668.878C8.11876 668.769 8.07049 668.669 7.99205 668.614C7.91362 668.56 7.81696 668.56 7.73852 668.614C7.66009 668.669 7.61182 668.769 7.61182 668.878V673.853C7.61182 673.934 7.63848 674.011 7.68603 674.069C7.73359 674.126 7.79805 674.158 7.86529 674.158H7.86529Z" fill="#E41D1D"/>
<path d="M6.8674 674.156H6.87817C6.94511 674.152 7.00819 674.117 7.0537 674.058C7.09915 673.999 7.12334 673.92 7.12088 673.84L6.96805 668.865L6.96811 668.865C6.96672 668.784 6.93777 668.706 6.88787 668.651C6.83791 668.596 6.77146 668.568 6.7038 668.573C6.63687 668.577 6.57379 668.612 6.52834 668.671C6.48283 668.73 6.45869 668.808 6.4611 668.889L6.61393 673.864C6.61712 673.942 6.64517 674.016 6.69236 674.07C6.73949 674.125 6.80215 674.155 6.8674 674.156L6.8674 674.156Z" fill="#E41D1D"/>
<path d="M8.85396 674.156H8.86293C8.92975 674.157 8.99445 674.128 9.04321 674.073C9.0919 674.018 9.1208 673.942 9.12362 673.861L9.27646 668.887H9.2764C9.27886 668.806 9.25466 668.728 9.20922 668.669C9.16371 668.609 9.10063 668.574 9.03369 668.571C8.96525 668.562 8.89699 668.589 8.84565 668.644C8.79431 668.699 8.76469 668.778 8.76403 668.861L8.60939 673.836H8.60945C8.60602 673.917 8.62998 673.997 8.67597 674.057C8.7219 674.117 8.78606 674.153 8.85396 674.156L8.85396 674.156Z" fill="#E41D1D"/>
</svg>
