<svg width="20" height="67" viewBox="0 0 20 67" fill="none" xmlns="http://www.w3.org/2000/svg">
<path d="M19.5 9C19.5 13.6462 15.2976 17.5 10 17.5C4.70244 17.5 0.5 13.6462 0.5 9C0.5 4.35383 4.70244 0.5 10 0.5C15.2976 0.5 19.5 4.35383 19.5 9ZM19.5 57.5C19.5 62.1462 15.2976 66 10 66C4.70244 66 0.5 62.1462 0.5 57.5C0.5 52.8538 4.70244 49 10 49C15.2976 49 19.5 52.8538 19.5 57.5ZM19.5 32.5C19.5 37.1462 15.2976 41 10 41C4.70244 41 0.5 37.1462 0.5 32.5C0.5 27.8538 4.70244 24 10 24C15.2976 24 19.5 27.8538 19.5 32.5Z" fill="#D9D9D9" stroke="black"/>
</svg>
