<svg width="25" height="25" viewBox="0 0 25 25" fill="none" xmlns="http://www.w3.org/2000/svg">
<path d="M21.4727 7.2174C21.0083 7.83692 20.4469 8.37733 19.8102 8.81776C19.8102 8.97959 19.8102 9.14142 19.8102 9.31225C19.8153 12.2511 18.6414 15.0691 16.5517 17.1345C14.4619 19.1999 11.6311 20.3399 8.69393 20.2989C6.99587 20.3046 5.31955 19.9169 3.7963 19.1661C3.71416 19.1302 3.66119 19.049 3.6615 18.9593V18.8604C3.6615 18.7313 3.76611 18.6267 3.89515 18.6267C5.5643 18.5716 7.1739 17.9929 8.49622 16.9724C6.98541 16.9419 5.62607 16.0469 5.00048 14.6707C4.96889 14.5956 4.97872 14.5093 5.02645 14.4432C5.07417 14.3771 5.15288 14.3407 5.23413 14.3471C5.6933 14.3932 6.15706 14.3505 6.60008 14.2212C4.93227 13.875 3.67909 12.4904 3.49974 10.7957C3.49337 10.7144 3.5298 10.6357 3.59588 10.5879C3.66195 10.5402 3.74812 10.5303 3.82326 10.562C4.27082 10.7595 4.75397 10.8635 5.24312 10.8676C3.78172 9.90846 3.15049 8.08405 3.70643 6.42622C3.76382 6.26513 3.90169 6.14612 4.06938 6.11294C4.23706 6.07975 4.40984 6.13728 4.5242 6.26439C6.49627 8.36325 9.20592 9.61396 12.0818 9.75279C12.0082 9.45885 11.972 9.15676 11.974 8.85372C12.0009 7.26472 12.9841 5.84921 14.4633 5.26987C15.9424 4.69054 17.6248 5.06203 18.7229 6.21044C19.4713 6.06785 20.1949 5.81645 20.8706 5.46421C20.9201 5.43331 20.9829 5.43331 21.0324 5.46421C21.0633 5.51373 21.0633 5.57652 21.0324 5.62604C20.7051 6.37552 20.1522 7.00412 19.4508 7.42419C20.065 7.35296 20.6684 7.20807 21.2481 6.99264C21.2969 6.95942 21.361 6.95942 21.4098 6.99264C21.4507 7.01134 21.4813 7.04711 21.4934 7.09042C21.5055 7.13373 21.4979 7.18018 21.4727 7.2174Z" fill="white"/>
</svg>
