<svg width="25" height="25" viewBox="0 0 25 25" fill="none" xmlns="http://www.w3.org/2000/svg">
<path fill-rule="evenodd" clip-rule="evenodd" d="M16.5 3.23047H8.5C5.73858 3.23047 3.5 5.46905 3.5 8.23047V16.2305C3.5 18.9919 5.73858 21.2305 8.5 21.2305H16.5C19.2614 21.2305 21.5 18.9919 21.5 16.2305V8.23047C21.5 5.46905 19.2614 3.23047 16.5 3.23047ZM19.75 16.2305C19.7445 18.0231 18.2926 19.475 16.5 19.4805H8.5C6.70735 19.475 5.25549 18.0231 5.25 16.2305V8.23047C5.25549 6.43782 6.70735 4.98596 8.5 4.98047H16.5C18.2926 4.98596 19.7445 6.43782 19.75 8.23047V16.2305ZM17.25 8.48047C17.8023 8.48047 18.25 8.03275 18.25 7.48047C18.25 6.92819 17.8023 6.48047 17.25 6.48047C16.6977 6.48047 16.25 6.92819 16.25 7.48047C16.25 8.03275 16.6977 8.48047 17.25 8.48047ZM12.5 7.73047C10.0147 7.73047 8 9.74519 8 12.2305C8 14.7158 10.0147 16.7305 12.5 16.7305C14.9853 16.7305 17 14.7158 17 12.2305C17.0027 11.0362 16.5294 9.89004 15.6849 9.04555C14.8404 8.20106 13.6943 7.72781 12.5 7.73047ZM9.75 12.2305C9.75 13.7493 10.9812 14.9805 12.5 14.9805C14.0188 14.9805 15.25 13.7493 15.25 12.2305C15.25 10.7117 14.0188 9.48047 12.5 9.48047C10.9812 9.48047 9.75 10.7117 9.75 12.2305Z" fill="white"/>
</svg>
