<svg width="25" height="25" viewBox="0 0 25 25" fill="none" xmlns="http://www.w3.org/2000/svg">
<path d="M17 6.5H14C13.4477 6.5 13 6.94772 13 7.5V10.5H17C17.1137 10.4975 17.2216 10.5504 17.2892 10.6419C17.3568 10.7334 17.3758 10.852 17.34 10.96L16.6 13.16C16.5318 13.3619 16.3431 13.4984 16.13 13.5H13V21C13 21.2761 12.7761 21.5 12.5 21.5H10C9.72386 21.5 9.5 21.2761 9.5 21V13.5H8C7.72386 13.5 7.5 13.2761 7.5 13V11C7.5 10.7239 7.72386 10.5 8 10.5H9.5V7.5C9.5 5.29086 11.2909 3.5 13.5 3.5H17C17.2761 3.5 17.5 3.72386 17.5 4V6C17.5 6.27614 17.2761 6.5 17 6.5Z" fill="white"/>
</svg>
