<svg width="25" height="25" viewBox="0 0 25 25" fill="none" xmlns="http://www.w3.org/2000/svg">
<path fill-rule="evenodd" clip-rule="evenodd" d="M5.5 3.5H19.5C20.6046 3.5 21.5 4.39543 21.5 5.5V19.5C21.5 20.6046 20.6046 21.5 19.5 21.5H5.5C4.39543 21.5 3.5 20.6046 3.5 19.5V5.5C3.5 4.39543 4.39543 3.5 5.5 3.5ZM8.5 18.5C8.77614 18.5 9 18.2761 9 18V11C9 10.7239 8.77614 10.5 8.5 10.5H7C6.72386 10.5 6.5 10.7239 6.5 11V18C6.5 18.2761 6.72386 18.5 7 18.5H8.5ZM7.75 9.5C6.92157 9.5 6.25 8.82843 6.25 8C6.25 7.17157 6.92157 6.5 7.75 6.5C8.57843 6.5 9.25 7.17157 9.25 8C9.25 8.82843 8.57843 9.5 7.75 9.5ZM18 18.5C18.2761 18.5 18.5 18.2761 18.5 18V13.4C18.5325 11.8108 17.3576 10.4545 15.78 10.26C14.677 10.1593 13.6083 10.6744 13 11.6V11C13 10.7239 12.7761 10.5 12.5 10.5H11C10.7239 10.5 10.5 10.7239 10.5 11V18C10.5 18.2761 10.7239 18.5 11 18.5H12.5C12.7761 18.5 13 18.2761 13 18V14.25C13 13.4216 13.6716 12.75 14.5 12.75C15.3284 12.75 16 13.4216 16 14.25V18C16 18.2761 16.2239 18.5 16.5 18.5H18Z" fill="white"/>
</svg>
