<svg width="22" height="20" viewBox="0 0 22 20" fill="none" xmlns="http://www.w3.org/2000/svg">
<path d="M19.1965 19.6966L14.9078 15.4079C14.2335 15.9923 13.4468 16.4474 12.5477 16.7734C11.6487 17.0993 10.6934 17.2622 9.68194 17.2622C7.25444 17.2622 5.19781 16.4193 3.51205 14.7336C1.82628 13.0478 0.983398 11.0137 0.983398 8.63111C0.983398 6.24857 1.82628 4.21441 3.51205 2.52865C5.19781 0.842882 7.2432 0 9.64823 0C12.0308 0 14.0593 0.842882 15.7338 2.52865C17.4084 4.21441 18.2456 6.24857 18.2456 8.63111C18.2456 9.59762 18.0883 10.5304 17.7736 11.4295C17.4589 12.3286 16.9869 13.1714 16.3576 13.9581L20.7137 18.2468C20.916 18.4266 21.0171 18.657 21.0171 18.938C21.0171 19.2189 20.9047 19.4718 20.68 19.6966C20.4777 19.8989 20.2304 20 19.9382 20C19.646 20 19.3988 19.8989 19.1965 19.6966ZM9.64823 15.2393C11.4689 15.2393 13.0198 14.5931 14.3009 13.3007C15.5821 12.0083 16.2227 10.4517 16.2227 8.63111C16.2227 6.81049 15.5821 5.25397 14.3009 3.96155C13.0198 2.66913 11.4689 2.02292 9.64823 2.02292C7.80513 2.02292 6.23736 2.66913 4.94495 3.96155C3.65253 5.25397 3.00632 6.81049 3.00632 8.63111C3.00632 10.4517 3.65253 12.0083 4.94495 13.3007C6.23736 14.5931 7.80513 15.2393 9.64823 15.2393Z" fill="#E3F2E1"/>
</svg>
