<svg width="24" height="25" viewBox="0 0 24 25" fill="none" xmlns="http://www.w3.org/2000/svg">
<path d="M11.9998 1.25C9.8811 1.25169 7.80593 1.85165 6.01318 2.9808H17.9701C16.182 1.85461 14.113 1.25477 11.9998 1.25Z" fill="#B22234"/>
<path d="M6.01318 2.98071C5.2409 3.46961 4.53108 4.0508 3.89941 4.71143H20.1135C19.4726 4.04889 18.7527 3.46763 17.9701 2.98071H6.01318Z" fill="white"/>
<path d="M3.89981 4.71143C3.3892 5.24228 2.93196 5.822 2.53467 6.44223H21.4787C21.0815 5.82201 20.6244 5.2423 20.1139 4.71143H3.89981Z" fill="#B22234"/>
<path d="M2.53424 6.44238C2.17916 6.99156 1.87264 7.57066 1.61816 8.1731H22.3732C22.1255 7.5714 21.826 6.99232 21.4782 6.44238H2.53424Z" fill="white"/>
<path d="M1.61838 8.1731C1.38803 8.73421 1.20344 9.31303 1.06641 9.9039H22.9328C22.7933 9.31281 22.6063 8.73399 22.3734 8.1731H1.61838Z" fill="#B22234"/>
<path d="M1.06656 9.90381C0.930665 10.4728 0.839355 11.0515 0.793457 11.6346H23.2135C23.1652 11.0513 23.0713 10.4726 22.9329 9.90381H1.06656Z" fill="white"/>
<path d="M0.793304 11.6348C0.767763 11.9226 0.753317 12.2112 0.75 12.5001C0.751095 12.7889 0.763311 13.0776 0.786621 13.3655H23.2067C23.2322 13.0777 23.2467 12.789 23.25 12.5001C23.2489 12.2113 23.2367 11.9226 23.2134 11.6348H0.793304Z" fill="#B22234"/>
<path d="M0.786621 13.3652C0.834987 13.9486 0.928808 14.5273 1.06723 15.096H22.9336C23.0695 14.5271 23.1608 13.9484 23.2067 13.3652H0.786621Z" fill="white"/>
<path d="M1.06738 15.0962C1.20682 15.6873 1.3939 16.2661 1.62677 16.827H22.3818C22.6121 16.2659 22.7967 15.6871 22.9337 15.0962H1.06738Z" fill="#B22234"/>
<path d="M1.62646 16.8269C1.87416 17.4286 2.17359 18.0077 2.52139 18.5576H21.4654C21.8205 18.0084 22.127 17.4293 22.3815 16.8269H1.62646Z" fill="white"/>
<path d="M2.52148 18.5576C2.91866 19.1778 3.37578 19.7576 3.88626 20.2884H20.1003C20.611 19.7576 21.0682 19.1779 21.4655 18.5576H2.52148Z" fill="#B22234"/>
<path d="M3.88623 20.2886C4.52711 20.9511 5.24698 21.5324 6.02966 22.0193H17.9865C18.7588 21.5304 19.4686 20.9492 20.1003 20.2886H3.88623Z" fill="white"/>
<path d="M6.02979 22.0193C7.81782 23.1455 9.88689 23.7453 12 23.7501C14.1187 23.7484 16.1939 23.1484 17.9867 22.0193H6.02979Z" fill="#B22234"/>
<path d="M12 1.25C9.01631 1.25 6.15483 2.43526 4.04505 4.54505C1.93526 6.65483 0.75 9.51631 0.75 12.5C0.751472 12.7973 0.764727 13.0944 0.789734 13.3906H12.8906V1.29459C12.5945 1.26796 12.2973 1.25309 12 1.25Z" fill="#3C3B6E"/>
<path d="M7.97396 2.00847C7.82406 2.06319 7.67534 2.12109 7.52791 2.18214L7.69225 2.30702L7.5811 2.66618L7.87554 2.44636L8.17858 2.67671L8.06478 2.305L8.36782 2.07878H7.99547L7.97396 2.00847ZM9.88225 1.70117L9.76536 2.07875H9.39431L9.69466 2.30704L9.58349 2.66616L9.87791 2.44635L10.181 2.67669L10.0672 2.30505L10.3702 2.07875H9.99788L9.88225 1.70117ZM11.8846 1.70117L11.7677 2.07875H11.3967L11.697 2.30704L11.5859 2.66616L11.8803 2.44635L12.1834 2.67669L12.0695 2.30505L12.3726 2.07875H12.0003L11.8846 1.70117ZM5.07943 3.64726C5.02652 3.68671 4.97397 3.72663 4.92177 3.76701L5.17501 3.95955L5.07943 3.64726ZM6.87867 2.984L6.76178 3.36158H6.39073L6.69108 3.58987L6.57991 3.94899L6.87433 3.72918L7.1774 3.95952L7.06359 3.58788L7.36661 3.36158H6.9943L6.87867 2.984ZM8.88106 2.984L8.76417 3.36158H8.39311L8.69347 3.58987L8.5823 3.94899L8.87672 3.72918L9.17978 3.95952L9.06598 3.58788L9.369 3.36158H8.99669L8.88106 2.984ZM10.8834 2.984L10.7666 3.36158H10.3955L10.6959 3.58987L10.5847 3.94899L10.8791 3.72918L11.1822 3.95952L11.0684 3.58788L11.3714 3.36158H10.9991L10.8834 2.984ZM3.98143 4.61415C3.87047 4.73161 3.76204 4.85145 3.65624 4.97358L3.57631 5.23176L3.87075 5.01194L4.17379 5.24229L4.05999 4.87068L4.36302 4.64436H3.99068L3.98143 4.61415ZM5.87748 4.26678L5.76059 4.64436H5.38954L5.68989 4.87265L5.57872 5.23176L5.87313 5.01196L6.1762 5.2423L6.06239 4.87066L6.36542 4.64436H5.9931L5.87748 4.26678ZM7.87986 4.26678L7.76297 4.64436H7.39192L7.69228 4.87265L7.5811 5.23176L7.87552 5.01196L8.17858 5.2423L8.06478 4.87066L8.36781 4.64436H7.99549L7.87986 4.26678ZM9.88225 4.26678L9.76536 4.64436H9.39431L9.69466 4.87265L9.58349 5.23176L9.87791 5.01196L10.181 5.2423L10.0672 4.87066L10.3702 4.64436H9.99788L9.88225 4.26678ZM11.8846 4.26678L11.7677 4.64436H11.3967L11.697 4.87265L11.5859 5.23176L11.8803 5.01196L12.1834 5.2423L12.0695 4.87066L12.3726 4.64436H12.0003L11.8846 4.26678ZM2.95888 5.82704C2.85523 5.96518 2.75477 6.10569 2.65758 6.24846L2.57518 6.5146L2.86952 6.29478L3.17266 6.52513L3.05886 6.15352L3.3618 5.9272H2.98955L2.95888 5.82704ZM4.87629 5.54961L4.75939 5.92718H4.38834L4.6887 6.15548L4.57752 6.51459L4.87194 6.29479L5.17501 6.52513L5.0612 6.15348L5.36423 5.92718H4.99191L4.87629 5.54961ZM6.87867 5.54961L6.76178 5.92718H6.39073L6.69108 6.15548L6.57991 6.51459L6.87433 6.29479L7.1774 6.52513L7.06359 6.15348L7.36661 5.92718H6.9943L6.87867 5.54961ZM8.88106 5.54961L8.76417 5.92718H8.39311L8.69347 6.15548L8.5823 6.51459L8.87672 6.29479L9.17978 6.52513L9.06598 6.15348L9.369 5.92718H8.99669L8.88106 5.54961ZM10.8834 5.54961L10.7666 5.92718H10.3955L10.6959 6.15548L10.5847 6.51459L10.8791 6.29479L11.1822 6.52513L11.0684 6.15348L11.3714 5.92718H10.9991L10.8834 5.54961ZM2.08144 7.21003C2.0142 7.33605 1.94937 7.46333 1.88698 7.59181L2.17144 7.80797L2.05764 7.43635L2.36067 7.21003H2.08144ZM3.8751 6.83244L3.75821 7.21001H3.38715L3.68751 7.43831L3.57634 7.79742L3.87075 7.57762L4.17382 7.80796L4.06001 7.43631L4.36304 7.21001H3.99072L3.8751 6.83244ZM5.87748 6.83244L5.76059 7.21001H5.38954L5.68989 7.43831L5.57872 7.79742L5.87313 7.57762L6.1762 7.80796L6.06239 7.43631L6.36542 7.21001H5.9931L5.87748 6.83244ZM7.87986 6.83244L7.76297 7.21001H7.39192L7.69228 7.43831L7.5811 7.79742L7.87552 7.57762L8.17858 7.80796L8.06478 7.43631L8.36781 7.21001H7.99549L7.87986 6.83244ZM9.88225 6.83244L9.76536 7.21001H9.39431L9.69466 7.43831L9.58349 7.79742L9.87791 7.57762L10.181 7.80796L10.0672 7.43631L10.3702 7.21001H9.99788L9.88225 6.83244ZM11.8846 6.83244L11.7677 7.21001H11.3967L11.697 7.43831L11.5859 7.79742L11.8803 7.57762L12.1834 7.80796L12.0695 7.43631L12.3726 7.21001H12.0003L11.8846 6.83244ZM2.8739 8.11522L2.75701 8.49279H2.38596L2.68632 8.72109L2.57515 9.0802L2.86956 8.8604L3.17262 9.09074L3.05882 8.71909L3.36185 8.49279H2.98953L2.8739 8.11522ZM4.87629 8.11522L4.75939 8.49279H4.38834L4.6887 8.72109L4.57752 9.0802L4.87194 8.8604L5.17501 9.09074L5.0612 8.71909L5.36423 8.49279H4.99191L4.87629 8.11522ZM6.87867 8.11522L6.76178 8.49279H6.39073L6.69108 8.72109L6.57991 9.0802L6.87433 8.8604L7.1774 9.09074L7.06359 8.71909L7.36661 8.49279H6.9943L6.87867 8.11522ZM8.88106 8.11522L8.76417 8.49279H8.39311L8.69347 8.72109L8.5823 9.0802L8.87672 8.8604L9.17978 9.09074L9.06598 8.71909L9.369 8.49279H8.99669L8.88106 8.11522ZM10.8834 8.11522L10.7666 8.49279H10.3955L10.6959 8.72109L10.5847 9.0802L10.8791 8.8604L11.1822 9.09074L11.0684 8.71909L11.3714 8.49279H10.9991L10.8834 8.11522ZM1.87271 9.39804L1.75582 9.77562H1.38477L1.68512 10.0039L1.57395 10.363L1.86837 10.1432L2.17143 10.3736L2.05763 10.0019L2.36065 9.77562H1.98834L1.87271 9.39804ZM3.8751 9.39804L3.75821 9.77562H3.38715L3.68751 10.0039L3.57634 10.363L3.87075 10.1432L4.17382 10.3736L4.06001 10.0019L4.36304 9.77562H3.99072L3.8751 9.39804ZM5.87748 9.39804L5.76059 9.77562H5.38954L5.68989 10.0039L5.57872 10.363L5.87313 10.1432L6.1762 10.3736L6.06239 10.0019L6.36542 9.77562H5.9931L5.87748 9.39804ZM7.87986 9.39804L7.76297 9.77562H7.39192L7.69228 10.0039L7.5811 10.363L7.87552 10.1432L8.17858 10.3736L8.06478 10.0019L8.36781 9.77562H7.99549L7.87986 9.39804ZM9.88225 9.39804L9.76536 9.77562H9.39431L9.69466 10.0039L9.58349 10.363L9.87791 10.1432L10.181 10.3736L10.0672 10.0019L10.3702 9.77562H9.99788L9.88225 9.39804ZM11.8846 9.39804L11.7677 9.77562H11.3967L11.697 10.0039L11.5859 10.363L11.8803 10.1432L12.1834 10.3736L12.0695 10.0019L12.3726 9.77562H12.0003L11.8846 9.39804ZM2.8739 10.6809L2.75701 11.0584H2.38596L2.68632 11.2867L2.57515 11.6459L2.86956 11.4261L3.17262 11.6564L3.05882 11.2847L3.36185 11.0584H2.98953L2.8739 10.6809ZM4.87629 10.6809L4.75939 11.0584H4.38834L4.6887 11.2867L4.57752 11.6459L4.87194 11.4261L5.17501 11.6564L5.0612 11.2847L5.36423 11.0584H4.99191L4.87629 10.6809ZM6.87867 10.6809L6.76178 11.0584H6.39073L6.69108 11.2867L6.57991 11.6459L6.87433 11.4261L7.1774 11.6564L7.06359 11.2847L7.36661 11.0584H6.9943L6.87867 10.6809ZM8.88106 10.6809L8.76417 11.0584H8.39311L8.69347 11.2867L8.5823 11.6459L8.87672 11.4261L9.17978 11.6564L9.06598 11.2847L9.369 11.0584H8.99669L8.88106 10.6809ZM10.8834 10.6809L10.7666 11.0584H10.3955L10.6959 11.2867L10.5847 11.6459L10.8791 11.4261L11.1822 11.6564L11.0684 11.2847L11.3714 11.0584H10.9991L10.8834 10.6809ZM1.87271 11.9637L1.75582 12.3412H1.38477L1.68512 12.5695L1.57395 12.9286L1.86837 12.7088L2.17143 12.9392L2.05763 12.5675L2.36065 12.3412H1.98834L1.87271 11.9637ZM3.8751 11.9637L3.75821 12.3412H3.38715L3.68751 12.5695L3.57634 12.9286L3.87075 12.7088L4.17382 12.9392L4.06001 12.5675L4.36304 12.3412H3.99072L3.8751 11.9637ZM5.87748 11.9637L5.76059 12.3412H5.38954L5.68989 12.5695L5.57872 12.9286L5.87313 12.7088L6.1762 12.9392L6.06239 12.5675L6.36542 12.3412H5.9931L5.87748 11.9637ZM7.87986 11.9637L7.76297 12.3412H7.39192L7.69228 12.5695L7.5811 12.9286L7.87552 12.7088L8.17858 12.9392L8.06478 12.5675L8.36781 12.3412H7.99549L7.87986 11.9637ZM9.88225 11.9637L9.76536 12.3412H9.39431L9.69466 12.5695L9.58349 12.9286L9.87791 12.7088L10.181 12.9392L10.0672 12.5675L10.3702 12.3412H9.99788L9.88225 11.9637ZM11.8846 11.9637L11.7677 12.3412H11.3967L11.697 12.5695L11.5859 12.9286L11.8803 12.7088L12.1834 12.9392L12.0695 12.5675L12.3726 12.3412H12.0003L11.8846 11.9637Z" fill="white"/>
</svg>
