<svg width="25" height="25" viewBox="0 0 25 25" fill="none" xmlns="http://www.w3.org/2000/svg">
<path d="M12.5001 1.25C10.3813 1.25169 8.30618 1.85165 6.51343 2.9808H18.4703C16.6823 1.85461 14.6132 1.25477 12.5001 1.25Z" fill="#B22234"/>
<path d="M6.51343 2.98071C5.74115 3.46961 5.03132 4.0508 4.39966 4.71143H20.6137C19.9729 4.04889 19.253 3.46763 18.4703 2.98071H6.51343Z" fill="white"/>
<path d="M4.39957 4.71143C3.88896 5.24228 3.43171 5.822 3.03442 6.44223H21.9784C21.5812 5.82201 21.1241 5.2423 20.6136 4.71143H4.39957Z" fill="#B22234"/>
<path d="M3.03448 6.44238C2.6794 6.99156 2.37288 7.57066 2.11841 8.1731H22.8734C22.6257 7.5714 22.3263 6.99232 21.9785 6.44238H3.03448Z" fill="white"/>
<path d="M2.11838 8.1731C1.88803 8.73421 1.70344 9.31303 1.56641 9.9039H23.4328C23.2933 9.31281 23.1063 8.73399 22.8734 8.1731H2.11838Z" fill="#B22234"/>
<path d="M1.56631 9.90381C1.43042 10.4728 1.33911 11.0515 1.29321 11.6346H23.7133C23.6649 11.0513 23.5711 10.4726 23.4327 9.90381H1.56631Z" fill="white"/>
<path d="M1.2933 11.6348C1.26776 11.9226 1.25332 12.2112 1.25 12.5001C1.25109 12.7889 1.26331 13.0776 1.28662 13.3655H23.7067C23.7322 13.0777 23.7467 12.789 23.75 12.5001C23.7489 12.2113 23.7367 11.9226 23.7134 11.6348H1.2933Z" fill="#B22234"/>
<path d="M1.28662 13.3652C1.33499 13.9486 1.42881 14.5273 1.56723 15.096H23.4336C23.5695 14.5271 23.6608 13.9484 23.7067 13.3652H1.28662Z" fill="white"/>
<path d="M1.56714 15.0962C1.70658 15.6873 1.89365 16.2661 2.12653 16.827H22.8815C23.1119 16.2659 23.2965 15.6871 23.4335 15.0962H1.56714Z" fill="#B22234"/>
<path d="M2.12671 16.8269C2.37441 17.4286 2.67384 18.0077 3.02164 18.5576H21.9656C22.3207 18.0084 22.6272 17.4293 22.8817 16.8269H2.12671Z" fill="white"/>
<path d="M3.02148 18.5576C3.41866 19.1778 3.87578 19.7576 4.38626 20.2884H20.6003C21.111 19.7576 21.5682 19.1779 21.9655 18.5576H3.02148Z" fill="#B22234"/>
<path d="M4.38623 20.2886C5.02711 20.9511 5.74698 21.5324 6.52966 22.0193H18.4865C19.2588 21.5304 19.9686 20.9492 20.6003 20.2886H4.38623Z" fill="white"/>
<path d="M6.52979 22.0193C8.31782 23.1455 10.3869 23.7453 12.5 23.7501C14.6187 23.7484 16.6939 23.1484 18.4867 22.0193H6.52979Z" fill="#B22234"/>
<path d="M12.5 1.25C9.51631 1.25 6.65483 2.43526 4.54505 4.54505C2.43526 6.65483 1.25 9.51631 1.25 12.5C1.25147 12.7973 1.26473 13.0944 1.28973 13.3906H13.3906V1.29459C13.0945 1.26796 12.7973 1.25309 12.5 1.25Z" fill="#3C3B6E"/>
<path d="M8.47371 2.00847C8.32382 2.06319 8.1751 2.12109 8.02767 2.18214L8.192 2.30702L8.08086 2.66618L8.37529 2.44636L8.67833 2.67671L8.56453 2.305L8.86757 2.07878H8.49523L8.47371 2.00847ZM10.382 1.70117L10.2651 2.07875H9.89406L10.1944 2.30704L10.0832 2.66616L10.3777 2.44635L10.6807 2.67669L10.5669 2.30505L10.87 2.07875H10.4976L10.382 1.70117ZM12.3844 1.70117L12.2675 2.07875H11.8964L12.1968 2.30704L12.0856 2.66616L12.38 2.44635L12.6831 2.67669L12.5693 2.30505L12.8723 2.07875H12.5L12.3844 1.70117ZM5.57918 3.64726C5.52628 3.68671 5.47373 3.72663 5.42153 3.76701L5.67476 3.95955L5.57918 3.64726ZM7.37843 2.984L7.26154 3.36158H6.89049L7.19084 3.58987L7.07967 3.94899L7.37408 3.72918L7.67715 3.95952L7.56334 3.58788L7.86637 3.36158H7.49406L7.37843 2.984ZM9.38081 2.984L9.26393 3.36158H8.89287L9.19323 3.58987L9.08206 3.94899L9.37647 3.72918L9.67953 3.95952L9.56573 3.58788L9.86876 3.36158H9.49644L9.38081 2.984ZM11.3832 2.984L11.2663 3.36158H10.8953L11.1956 3.58987L11.0844 3.94899L11.3789 3.72918L11.6819 3.95952L11.5681 3.58788L11.8711 3.36158H11.4988L11.3832 2.984ZM4.48119 4.61415C4.37022 4.73161 4.2618 4.85145 4.15599 4.97358L4.07607 5.23176L4.3705 5.01194L4.67354 5.24229L4.55974 4.87068L4.86278 4.64436H4.49044L4.48119 4.61415ZM6.37724 4.26678L6.26034 4.64436H5.88929L6.18964 4.87265L6.07847 5.23176L6.37289 5.01196L6.67596 5.2423L6.56215 4.87066L6.86518 4.64436H6.49286L6.37724 4.26678ZM8.37962 4.26678L8.26273 4.64436H7.89168L8.19203 4.87265L8.08086 5.23176L8.37527 5.01196L8.67834 5.2423L8.56453 4.87066L8.86756 4.64436H8.49525L8.37962 4.26678ZM10.382 4.26678L10.2651 4.64436H9.89406L10.1944 4.87265L10.0832 5.23176L10.3777 5.01196L10.6807 5.2423L10.5669 4.87066L10.87 4.64436H10.4976L10.382 4.26678ZM12.3844 4.26678L12.2675 4.64436H11.8964L12.1968 4.87265L12.0856 5.23176L12.38 5.01196L12.6831 5.2423L12.5693 4.87066L12.8723 4.64436H12.5L12.3844 4.26678ZM3.45864 5.82704C3.35498 5.96518 3.25452 6.10569 3.15734 6.24846L3.07494 6.5146L3.36928 6.29478L3.67241 6.52513L3.55861 6.15352L3.86156 5.9272H3.48931L3.45864 5.82704ZM5.37604 5.54961L5.25915 5.92718H4.8881L5.18845 6.15548L5.07728 6.51459L5.3717 6.29479L5.67477 6.52513L5.56096 6.15348L5.86399 5.92718H5.49167L5.37604 5.54961ZM7.37843 5.54961L7.26154 5.92718H6.89049L7.19084 6.15548L7.07967 6.51459L7.37408 6.29479L7.67715 6.52513L7.56334 6.15348L7.86637 5.92718H7.49406L7.37843 5.54961ZM9.38081 5.54961L9.26393 5.92718H8.89287L9.19323 6.15548L9.08206 6.51459L9.37647 6.29479L9.67953 6.52513L9.56573 6.15348L9.86876 5.92718H9.49644L9.38081 5.54961ZM11.3832 5.54961L11.2663 5.92718H10.8953L11.1956 6.15548L11.0844 6.51459L11.3789 6.29479L11.6819 6.52513L11.5681 6.15348L11.8711 5.92718H11.4988L11.3832 5.54961ZM2.58119 7.21003C2.51396 7.33605 2.44913 7.46333 2.38674 7.59181L2.67119 7.80797L2.55739 7.43635L2.86043 7.21003H2.58119ZM4.37485 6.83244L4.25796 7.21001H3.88691L4.18726 7.43831L4.07609 7.79742L4.37051 7.57762L4.67357 7.80796L4.55977 7.43631L4.8628 7.21001H4.49048L4.37485 6.83244ZM6.37724 6.83244L6.26034 7.21001H5.88929L6.18964 7.43831L6.07847 7.79742L6.37289 7.57762L6.67596 7.80796L6.56215 7.43631L6.86518 7.21001H6.49286L6.37724 6.83244ZM8.37962 6.83244L8.26273 7.21001H7.89168L8.19203 7.43831L8.08086 7.79742L8.37527 7.57762L8.67834 7.80796L8.56453 7.43631L8.86756 7.21001H8.49525L8.37962 6.83244ZM10.382 6.83244L10.2651 7.21001H9.89406L10.1944 7.43831L10.0832 7.79742L10.3777 7.57762L10.6807 7.80796L10.5669 7.43631L10.87 7.21001H10.4976L10.382 6.83244ZM12.3844 6.83244L12.2675 7.21001H11.8964L12.1968 7.43831L12.0856 7.79742L12.38 7.57762L12.6831 7.80796L12.5693 7.43631L12.8723 7.21001H12.5L12.3844 6.83244ZM3.37366 8.11522L3.25677 8.49279H2.88571L3.18607 8.72109L3.0749 9.0802L3.36931 8.8604L3.67238 9.09074L3.55858 8.71909L3.8616 8.49279H3.48928L3.37366 8.11522ZM5.37604 8.11522L5.25915 8.49279H4.8881L5.18845 8.72109L5.07728 9.0802L5.3717 8.8604L5.67477 9.09074L5.56096 8.71909L5.86399 8.49279H5.49167L5.37604 8.11522ZM7.37843 8.11522L7.26154 8.49279H6.89049L7.19084 8.72109L7.07967 9.0802L7.37408 8.8604L7.67715 9.09074L7.56334 8.71909L7.86637 8.49279H7.49406L7.37843 8.11522ZM9.38081 8.11522L9.26393 8.49279H8.89287L9.19323 8.72109L9.08206 9.0802L9.37647 8.8604L9.67953 9.09074L9.56573 8.71909L9.86876 8.49279H9.49644L9.38081 8.11522ZM11.3832 8.11522L11.2663 8.49279H10.8953L11.1956 8.72109L11.0844 9.0802L11.3789 8.8604L11.6819 9.09074L11.5681 8.71909L11.8711 8.49279H11.4988L11.3832 8.11522ZM2.37247 9.39804L2.25558 9.77562H1.88452L2.18488 10.0039L2.07371 10.363L2.36812 10.1432L2.67119 10.3736L2.55738 10.0019L2.86041 9.77562H2.4881L2.37247 9.39804ZM4.37485 9.39804L4.25796 9.77562H3.88691L4.18726 10.0039L4.07609 10.363L4.37051 10.1432L4.67357 10.3736L4.55977 10.0019L4.8628 9.77562H4.49048L4.37485 9.39804ZM6.37724 9.39804L6.26034 9.77562H5.88929L6.18964 10.0039L6.07847 10.363L6.37289 10.1432L6.67596 10.3736L6.56215 10.0019L6.86518 9.77562H6.49286L6.37724 9.39804ZM8.37962 9.39804L8.26273 9.77562H7.89168L8.19203 10.0039L8.08086 10.363L8.37527 10.1432L8.67834 10.3736L8.56453 10.0019L8.86756 9.77562H8.49525L8.37962 9.39804ZM10.382 9.39804L10.2651 9.77562H9.89406L10.1944 10.0039L10.0832 10.363L10.3777 10.1432L10.6807 10.3736L10.5669 10.0019L10.87 9.77562H10.4976L10.382 9.39804ZM12.3844 9.39804L12.2675 9.77562H11.8964L12.1968 10.0039L12.0856 10.363L12.38 10.1432L12.6831 10.3736L12.5693 10.0019L12.8723 9.77562H12.5L12.3844 9.39804ZM3.37366 10.6809L3.25677 11.0584H2.88571L3.18607 11.2867L3.0749 11.6459L3.36931 11.4261L3.67238 11.6564L3.55858 11.2847L3.8616 11.0584H3.48928L3.37366 10.6809ZM5.37604 10.6809L5.25915 11.0584H4.8881L5.18845 11.2867L5.07728 11.6459L5.3717 11.4261L5.67477 11.6564L5.56096 11.2847L5.86399 11.0584H5.49167L5.37604 10.6809ZM7.37843 10.6809L7.26154 11.0584H6.89049L7.19084 11.2867L7.07967 11.6459L7.37408 11.4261L7.67715 11.6564L7.56334 11.2847L7.86637 11.0584H7.49406L7.37843 10.6809ZM9.38081 10.6809L9.26393 11.0584H8.89287L9.19323 11.2867L9.08206 11.6459L9.37647 11.4261L9.67953 11.6564L9.56573 11.2847L9.86876 11.0584H9.49644L9.38081 10.6809ZM11.3832 10.6809L11.2663 11.0584H10.8953L11.1956 11.2867L11.0844 11.6459L11.3789 11.4261L11.6819 11.6564L11.5681 11.2847L11.8711 11.0584H11.4988L11.3832 10.6809ZM2.37247 11.9637L2.25558 12.3412H1.88452L2.18488 12.5695L2.07371 12.9286L2.36812 12.7088L2.67119 12.9392L2.55738 12.5675L2.86041 12.3412H2.4881L2.37247 11.9637ZM4.37485 11.9637L4.25796 12.3412H3.88691L4.18726 12.5695L4.07609 12.9286L4.37051 12.7088L4.67357 12.9392L4.55977 12.5675L4.8628 12.3412H4.49048L4.37485 11.9637ZM6.37724 11.9637L6.26034 12.3412H5.88929L6.18964 12.5695L6.07847 12.9286L6.37289 12.7088L6.67596 12.9392L6.56215 12.5675L6.86518 12.3412H6.49286L6.37724 11.9637ZM8.37962 11.9637L8.26273 12.3412H7.89168L8.19203 12.5695L8.08086 12.9286L8.37527 12.7088L8.67834 12.9392L8.56453 12.5675L8.86756 12.3412H8.49525L8.37962 11.9637ZM10.382 11.9637L10.2651 12.3412H9.89406L10.1944 12.5695L10.0832 12.9286L10.3777 12.7088L10.6807 12.9392L10.5669 12.5675L10.87 12.3412H10.4976L10.382 11.9637ZM12.3844 11.9637L12.2675 12.3412H11.8964L12.1968 12.5695L12.0856 12.9286L12.38 12.7088L12.6831 12.9392L12.5693 12.5675L12.8723 12.3412H12.5L12.3844 11.9637Z" fill="white"/>
</svg>
