<svg width="106" height="89" viewBox="0 0 106 89" fill="none" xmlns="http://www.w3.org/2000/svg">
<path d="M100.624 33.0996L94.2643 30.7687L92.2957 15.4691C91.6744 11.1497 89.698 7.21959 86.7215 4.38447C83.7449 1.54936 79.9631 -0.00512038 76.055 0.000122493H63.4107C62.5457 -0.00545906 61.6881 0.17976 60.887 0.545204C60.0859 0.910648 59.357 1.44916 58.7418 2.13C58.1266 2.81083 57.6372 3.62065 57.3016 4.51321C56.966 5.40578 56.7907 6.36361 56.7857 7.33202V63.5715H30.2857C27.8184 60.8333 24.4849 59.297 21.0107 59.297C17.5365 59.297 14.203 60.8333 11.7357 63.5715H11.3571H7.57143V46.6191H45.4286C46.4326 46.6191 47.3955 46.1726 48.1055 45.3778C48.8154 44.583 49.2143 43.505 49.2143 42.381C49.2143 41.257 48.8154 40.179 48.1055 39.3842C47.3955 38.5894 46.4326 38.1429 45.4286 38.1429H7.57143C5.56336 38.1429 3.63754 39.036 2.21762 40.6255C0.797701 42.2151 0 44.3711 0 46.6191V63.5715C0 65.8195 0.797701 67.9754 2.21762 69.565C3.63754 71.1546 5.56336 72.0476 7.57143 72.0476H7.87429C7.83481 72.7533 7.83481 73.461 7.87429 74.1667C7.87429 78.1007 9.27026 81.8736 11.7551 84.6554C14.24 87.4372 17.6102 89 21.1243 89C24.6384 89 28.0086 87.4372 30.4935 84.6554C32.9783 81.8736 34.3743 78.1007 34.3743 74.1667C34.3134 73.4539 34.2123 72.7461 34.0714 72.0476H67.8779C67.7567 72.746 67.6933 73.4553 67.6886 74.1667C67.767 77.3083 68.7101 80.3461 70.389 82.865C72.0679 85.3839 74.4007 87.2609 77.0685 88.2394C79.7363 89.2179 82.609 89.2503 85.2939 88.332C87.9787 87.4137 90.3448 85.5896 92.0686 83.1091C93.8003 80.537 94.7072 77.3867 94.6429 74.1667C94.6823 73.461 94.6823 72.7533 94.6429 72.0476H98.4286C100.437 72.0476 102.362 71.1546 103.782 69.565C105.202 67.9754 106 65.8195 106 63.5715V41.3639C105.999 39.5271 105.479 37.7377 104.513 36.2529C103.547 34.768 102.186 33.6641 100.624 33.0996ZM76.055 8.4763C78.1468 8.46337 80.1746 9.28308 81.7764 10.7891C83.3783 12.2951 84.4499 14.3895 84.8 16.6982L86.4657 29.6667H64.3571V8.4763H76.055ZM20.8214 80.5238C19.6983 80.5238 18.6004 80.151 17.6666 79.4525C16.7327 78.7539 16.0049 77.7611 15.5751 76.5995C15.1453 75.4378 15.0329 74.1596 15.252 72.9265C15.4711 71.6933 16.0119 70.5606 16.8061 69.6715C17.6002 68.7825 18.6121 68.177 19.7136 67.9317C20.8151 67.6864 21.9569 67.8123 22.9945 68.2935C24.0321 68.7746 24.919 69.5894 25.543 70.6349C26.167 71.6803 26.5 72.9094 26.5 74.1667C26.5 75.8527 25.9017 77.4697 24.8368 78.6619C23.7718 79.854 22.3275 80.5238 20.8214 80.5238ZM85.8979 77.9386C85.3219 78.7574 84.5852 79.4166 83.7448 79.8649C82.9044 80.3133 81.983 80.5388 81.0521 80.5238C80.3064 80.5238 79.568 80.3594 78.8791 80.0399C78.1901 79.7204 77.5641 79.2522 77.0368 78.6619C76.5095 78.0715 76.0912 77.3707 75.8058 76.5995C75.5205 75.8282 75.3736 75.0015 75.3736 74.1667C75.3736 73.3319 75.5205 72.5052 75.8058 71.7339C76.0912 70.9626 76.5095 70.2618 77.0368 69.6715C77.5641 69.0812 78.1901 68.6129 78.8791 68.2935C79.568 67.974 80.3064 67.8096 81.0521 67.8096C81.983 67.7946 82.9044 68.0201 83.7448 68.4684C84.5852 68.9168 85.3219 69.576 85.8979 70.3948C86.6595 71.4671 87.0741 72.7967 87.0741 74.1667C87.0741 75.5367 86.6595 76.8663 85.8979 77.9386ZM90.8571 63.5715H90.4786C87.9505 60.8364 84.5678 59.3156 81.0521 59.3334C77.504 59.3225 74.0882 60.84 71.5121 63.5715H64.3571V38.1429H90.0621L98.4286 41.3639V63.5715H90.8571Z" fill="black"/>
</svg>
