<svg width="62" height="88" viewBox="0 0 62 88" fill="none" xmlns="http://www.w3.org/2000/svg">
<path d="M57.2336 19.5555H46.6999C45.7819 15.9954 44.1594 12.6671 41.9335 9.77775H57.2336C58.4977 9.77775 59.7101 9.26267 60.604 8.34583C61.4978 7.42899 62 6.18548 62 4.88887C62 3.59226 61.4978 2.34876 60.604 1.43192C59.7101 0.515076 58.4977 0 57.2336 0H4.80328C3.53915 0 2.3268 0.515076 1.43293 1.43192C0.539057 2.34876 0.0368841 3.59226 0.0368841 4.88887C0.0368841 6.18548 0.539057 7.42899 1.43293 8.34583C2.3268 9.26267 3.53915 9.77775 4.80328 9.77775H21.4857C24.6326 9.78908 27.7123 10.7132 30.369 12.4433C33.0257 14.1735 35.1511 16.6391 36.4998 19.5555H4.80328C3.53915 19.5555 2.3268 20.0706 1.43293 20.9874C0.539057 21.9043 0.0368841 23.1478 0.0368841 24.4444C0.0368841 25.741 0.539057 26.9845 1.43293 27.9013C2.3268 28.8182 3.53915 29.3332 4.80328 29.3332H38.168C37.5966 33.3939 35.6218 37.1089 32.6034 39.801C29.5849 42.4932 25.7239 43.9833 21.724 43.9999H4.80328C4.5814 43.977 4.35786 43.977 4.13598 43.9999C3.82013 43.9494 3.49856 43.9494 3.1827 43.9999C2.85781 44.1134 2.55224 44.2783 2.27709 44.4888L1.70512 44.831C1.44403 45.0728 1.21918 45.3529 1.03783 45.6621C0.878189 45.8788 0.734786 46.1076 0.608851 46.3465C0.566424 46.6382 0.566424 46.9348 0.608851 47.2265C0.26919 47.7142 0.0709055 48.2904 0.0368841 48.8887C0.0145851 49.1163 0.0145851 49.3456 0.0368841 49.5732C-0.0122947 49.8972 -0.0122947 50.227 0.0368841 50.551C0.147536 50.8842 0.308362 51.1976 0.513523 51.4798C0.513523 51.4798 0.513524 51.871 0.847171 52.0665L29.4455 86.2886C30.2672 87.2741 31.4369 87.8843 32.6973 87.9852C33.9576 88.086 35.2054 87.6692 36.1661 86.8264C37.1269 85.9836 37.7219 84.7839 37.8202 83.4911C37.9185 82.1984 37.5121 80.9185 36.6904 79.9331L15.194 53.7776H21.4857C28.0445 53.8055 34.3752 51.3105 39.2284 46.7851C44.0816 42.2598 47.1046 36.0328 47.7008 29.3332H57.2336C58.4977 29.3332 59.7101 28.8182 60.604 27.9013C61.4978 26.9845 62 25.741 62 24.4444C62 23.1478 61.4978 21.9043 60.604 20.9874C59.7101 20.0706 58.4977 19.5555 57.2336 19.5555Z" fill="black"/>
</svg>
