<svg width="92" height="70" viewBox="0 0 92 70" fill="none" xmlns="http://www.w3.org/2000/svg">
<path d="M88.6337 15.8281H18.4231L15.8274 2.53303C15.6795 1.80726 15.2816 1.15637 14.7032 0.693658C14.1249 0.230943 13.4025 -0.0142906 12.662 0.000643984H0V6.33162H10.0663L22.1584 67.109C22.3064 67.8348 22.7042 68.4857 23.2826 68.9484C23.861 69.4111 24.5834 69.6563 25.3239 69.6414H82.3027V63.3104H27.9196L25.3239 50.6485H82.3027C83.0344 50.6663 83.7498 50.4301 84.3269 49.9799C84.9041 49.5297 85.3074 48.8935 85.4682 48.1794L91.7992 19.69C91.9052 19.2203 91.9028 18.7326 91.7919 18.264C91.6811 17.7955 91.4649 17.3583 91.1596 16.9859C90.8544 16.6135 90.4682 16.3157 90.0305 16.115C89.5928 15.9144 89.115 15.8163 88.6337 15.8281ZM79.7703 44.3175H24.121L19.6893 22.1591H84.6768L79.7703 44.3175Z" fill="black"/>
</svg>
